<svg width="10" height="17" viewBox="0 0 10 17" fill="none" xmlns="http://www.w3.org/2000/svg">
<path d="M0 8.1543C0 8.61133 0.158203 8.98926 0.544922 9.3584L7.1543 15.8271C7.43555 16.1084 7.76953 16.2402 8.16504 16.2402C8.98242 16.2402 9.6416 15.5811 9.6416 14.7812C9.6416 14.3682 9.47461 13.999 9.16699 13.7002L3.43652 8.14551L9.16699 2.6084C9.47461 2.30078 9.6416 1.93164 9.6416 1.52734C9.6416 0.727539 8.98242 0.0683594 8.16504 0.0683594C7.76953 0.0683594 7.43555 0.208984 7.1543 0.481445L0.544922 6.9502C0.166992 7.31934 0 7.68848 0 8.1543Z" fill="#374234"/>
</svg>
